custom-analysis
version=1
nRows=6
nColumns=98
inDegrees=no

This file contains tibia displacement and acting force.

Units are S.I. units (seconds, meters, Newtons, ...)
Angles are in degrees.

endheader
time	APT	SIT	knee_angle	aACL_R_force	pACL_R_force	aPCL_R_force	pPCL_R_force	aMCL_R_force	mMCL_R_force	pMCL_R_force	aLCL_R_force	mLCL_R_force	pLCL_R_force	aPCL_L_force	pPCL_L_force	aMCL_L_force	aLCL_L_force	aACL_R_length	pACL_R_length	aPCL_R_length	pPCL_R_length	aMCL_R_length	mMCL_R_length	pMCL_R_length	aLCL_R_length	mLCL_R_length	pLCL_R_length	aPCL_L_length	pPCL_L_length	aMCL_L_length	aLCL_L_length	aACL_R_strain	pACL_R_strain	aPCL_R_strain	pPCL_R_strain	aMCL_R_strain	mMCL_R_strain	pMCL_R_strain	aLCL_R_strain	mLCL_R_strain	pLCL_R_strain	aPCL_L_strain	pPCL_L_strain	aMCL_L_strain	aLCL_L_strain	femur_lat_meniscii_r.femur_lat_r.force.X	femur_lat_meniscii_r.femur_lat_r.force.Y	femur_lat_meniscii_r.femur_lat_r.force.Z	femur_lat_meniscii_r.femur_lat_r.torque.X	femur_lat_meniscii_r.femur_lat_r.torque.Y	femur_lat_meniscii_r.femur_lat_r.torque.Z	femur_lat_meniscii_r.meniscus_lat_r.force.X	femur_lat_meniscii_r.meniscus_lat_r.force.Y	femur_lat_meniscii_r.meniscus_lat_r.force.Z	femur_lat_meniscii_r.meniscus_lat_r.torque.X	femur_lat_meniscii_r.meniscus_lat_r.torque.Y	femur_lat_meniscii_r.meniscus_lat_r.torque.Z	femur_med_meniscii_r.femur_med_r.force.X	femur_med_meniscii_r.femur_med_r.force.Y	femur_med_meniscii_r.femur_med_r.force.Z	femur_med_meniscii_r.femur_med_r.torque.X	femur_med_meniscii_r.femur_med_r.torque.Y	femur_med_meniscii_r.femur_med_r.torque.Z	femur_med_meniscii_r.meniscus_med_r.force.X	femur_med_meniscii_r.meniscus_med_r.force.Y	femur_med_meniscii_r.meniscus_med_r.force.Z	femur_med_meniscii_r.meniscus_med_r.torque.X	femur_med_meniscii_r.meniscus_med_r.torque.Y	femur_med_meniscii_r.meniscus_med_r.torque.Z	femur_med_tibia_r.tibia_upper_r.force.X	femur_med_tibia_r.tibia_upper_r.force.Y	femur_med_tibia_r.tibia_upper_r.force.Z	femur_med_tibia_r.tibia_upper_r.torque.X	femur_med_tibia_r.tibia_upper_r.torque.Y	femur_med_tibia_r.tibia_upper_r.torque.Z	femur_med_tibia_r.femur_med_r.force.X	femur_med_tibia_r.femur_med_r.force.Y	femur_med_tibia_r.femur_med_r.force.Z	femur_med_tibia_r.femur_med_r.torque.X	femur_med_tibia_r.femur_med_r.torque.Y	femur_med_tibia_r.femur_med_r.torque.Z	femur_lat_tibia_r.tibia_upper_r.force.X	femur_lat_tibia_r.tibia_upper_r.force.Y	femur_lat_tibia_r.tibia_upper_r.force.Z	femur_lat_tibia_r.tibia_upper_r.torque.X	femur_lat_tibia_r.tibia_upper_r.torque.Y	femur_lat_tibia_r.tibia_upper_r.torque.Z	femur_lat_tibia_r.femur_lat_r.force.X	femur_lat_tibia_r.femur_lat_r.force.Y	femur_lat_tibia_r.femur_lat_r.force.Z	femur_lat_tibia_r.femur_lat_r.torque.X	femur_lat_tibia_r.femur_lat_r.torque.Y	femur_lat_tibia_r.femur_lat_r.torque.Z	femur_lat_meniscii_force_r	femur_med_meniscii_force_r	femur_lat_tibia_force_r	femur_med_tibia_force_r
      0.16356330	      0.01267958	      0.01726299	     56.55350601	     -9.74588888	      0.00000000	    565.64766535	    379.08319188	      0.00000000	      0.00000000	      0.00000000	      0.00000000	      0.00000000	      0.00000000	      0.00000000	      0.00000000	      0.00000001	      0.00000000	      0.03110993	      0.02380369	      0.03485511	      0.03242284	      0.05950046	      0.05924902	      0.05639277	      0.05229639	      0.04759010	      0.04271126	      0.01525851	      0.01651186	      0.06550154	      0.04489616	      0.00336811	     -0.05008275	      0.12091234	      0.08481865	     -0.00877164	     -0.00910603	     -0.03976342	     -0.06575554	     -0.15498437	     -0.18400741	      0.00000079	     -0.32847694	      0.00000060	     -0.00000086	     43.23793822	    106.64142384	     14.58224633	     -8.49724473	      1.04739171	     16.59670777	    -43.23793822	   -106.64142384	    -14.58224633	      3.01893420	     -1.40736314	      2.27958275	     10.35498075	     10.70335030	      8.31711005	     -3.12617568	     -0.24722088	      4.18747925	    -10.35498075	    -10.70335030	     -8.31711005	     -0.06928407	      0.06213344	      0.02912719	   -807.78142875	   -737.66226199	    233.35556407	    -17.05024603	     18.13430133	     -1.85985276	    807.78142875	    737.66226199	   -233.35556407	    108.17361780	    -14.49399511	    328.79906363	    -14.13426077	    -18.05348663	     -5.94802765	      0.58729161	     -0.49788967	      0.11588113	     14.13426077	     18.05348663	      5.94802765	     -2.85784095	      0.35601044	      5.71024366	    115.99376918	     17.05759812	     23.68722736	   1118.53085281
      0.16383600	      0.01269677	      0.01731560	     56.70262218	     -9.65742823	      0.00000000	    569.02718871	    380.79054752	      0.00000000	      0.00000000	      0.00000000	      0.00000000	      0.00000000	      0.00000000	      0.00000000	      0.00000000	      0.00000001	      0.00000000	      0.03110311	      0.02379883	      0.03487436	      0.03243366	      0.05951422	      0.05925047	      0.05638631	      0.05229082	      0.04757771	      0.04269574	      0.01525851	      0.01651186	      0.06550154	      0.04489616	      0.00314818	     -0.05027676	      0.12153164	      0.08518070	     -0.00854249	     -0.00908175	     -0.03987356	     -0.06585508	     -0.15520424	     -0.18430376	      0.00000079	     -0.32847694	      0.00000060	     -0.00000086	     43.60781253	    104.93752843	     14.00204779	     -8.21210249	      1.05540656	     16.76093591	    -43.60781253	   -104.93752843	    -14.00204779	      2.95510964	     -1.40483668	      2.23016420	     10.50338692	     10.64635735	      8.24698362	     -3.09860362	     -0.25053307	      4.24619832	    -10.50338692	    -10.64635735	     -8.24698362	     -0.07015720	      0.06623019	      0.02747032	   -811.53762943	   -737.64541219	    233.08624103	    -17.03184991	     18.21156639	     -1.83392511	    811.53762943	    737.64541219	   -233.08624103	    108.06245252	    -14.57277534	    330.29130911	    -13.72221946	    -17.45112537	     -5.78975498	      0.56834230	     -0.48424126	      0.11289475	     13.72221946	     17.45112537	      5.78975498	     -2.77882183	      0.34585897	      5.54323616	    114.49708961	     17.07860651	     22.94258805	   1121.17941199
      0.16406037	      0.01271079	      0.01735889	     56.82533732	     -9.60738579	      0.00000000	    571.80788843	    382.20735466	      0.00000000	      0.00000000	      0.00000000	      0.00000000	      0.00000000	      0.00000000	      0.00000000	      0.00000000	      0.00000001	      0.00000000	      0.03109754	      0.02379491	      0.03489019	      0.03244258	      0.05952558	      0.05925173	      0.05638108	      0.05228617	      0.04756749	      0.04268298	      0.01525851	      0.01651186	      0.06550154	      0.04489616	      0.00296865	     -0.05043336	      0.12204072	      0.08547891	     -0.00835316	     -0.00906060	     -0.03996246	     -0.06593806	     -0.15538578	     -0.18454758	      0.00000079	     -0.32847694	      0.00000060	     -0.00000086	     44.60780305	    104.64704678	     13.80008335	     -8.12128134	      1.08344132	     17.17475783	    -44.60780305	   -104.64704678	    -13.80008335	      2.94166472	     -1.43081704	      2.20216585	     10.60995309	     10.58568037	      8.19813663	     -3.08006722	     -0.25278314	      4.28822587	    -10.60995309	    -10.58568037	     -8.19813663	     -0.07015923	      0.06896969	      0.02611371	   -814.64197916	   -736.89985565	    233.63455226	    -17.02680873	     18.29548641	     -1.83350349	    814.64197916	    736.89985565	   -233.63455226	    108.27740467	    -14.64227291	    331.53053600	    -13.35720425	    -16.90128897	     -5.70913028	      0.55300946	     -0.47398210	      0.10947228	     13.35720425	     16.90128897	      5.70913028	     -2.73328347	      0.33750544	      5.39556881	    114.59189671	     17.08324260	     22.28592925	   1123.05300653
      0.16439987	      0.01273180	      0.01742438	     57.01104553	     -9.54593083	      0.00000000	    575.97915118	    384.28149963	      0.00000000	      0.00000000	      0.00000000	      0.00000000	      0.00000000	      0.00000000	      0.00000000	      0.00000000	      0.00000001	      0.00000000	      0.03108918	      0.02378909	      0.03491411	      0.03245607	      0.05954285	      0.05925375	      0.05637334	      0.05227902	      0.04755194	      0.04266366	      0.01525851	      0.01651186	      0.06550154	      0.04489616	      0.00269902	     -0.05066556	      0.12280988	      0.08593042	     -0.00806562	     -0.00902682	     -0.04009425	     -0.06606577	     -0.15566185	     -0.18491678	      0.00000079	     -0.32847694	      0.00000060	     -0.00000086	     44.72455719	    102.87218755	     13.19157099	     -7.82207062	      1.08101118	     17.23720037	    -44.72455719	   -102.87218755	    -13.19157099	      2.87464449	     -1.41702297	      2.15682866	     10.93584908	     10.57570749	      8.09137317	     -3.03560752	     -0.26122147	      4.42038264	    -10.93584908	    -10.57570749	     -8.09137317	     -0.07376593	      0.07859810	      0.02076839	   -818.98048799	   -735.18452585	    233.38636231	    -16.97774385	     18.38305701	     -1.84021151	    818.98048799	    735.18452585	   -233.38636231	    108.14444381	    -14.72992787	    333.26262912	    -12.85451815	    -15.97874578	     -5.36309722	      0.52127247	     -0.45273158	      0.09986021	     12.85451815	     15.97874578	      5.36309722	     -2.56945294	      0.32370753	      5.19372563	    112.94684826	     17.23103896	     21.19721126	   1125.03089774
      0.16486921	      0.01276032	      0.01751502	     57.26782617	     -9.59397934	      0.00000000	    581.68367656	    387.05435777	      0.00000000	      0.00000000	      0.00000000	      0.00000000	      0.00000000	      0.00000000	      0.00000000	      0.00000000	      0.00000001	      0.00000000	      0.03107764	      0.02378118	      0.03494706	      0.03247471	      0.05956674	      0.05925667	      0.05636288	      0.05226881	      0.04753021	      0.04263683	      0.01525851	      0.01651186	      0.06550154	      0.04489616	      0.00232667	     -0.05098114	      0.12386958	      0.08655400	     -0.00766760	     -0.00897807	     -0.04027245	     -0.06624814	     -0.15604778	     -0.18542929	      0.00000079	     -0.32847694	      0.00000060	     -0.00000086	     44.84704384	    102.75701968	     12.85380089	     -7.68569830	      1.07895775	     17.28046152	    -44.84704384	   -102.75701968	    -12.85380089	      2.86827526	     -1.40953457	      2.17030427	     11.23712198	     10.57053623	      8.02142444	     -3.00676923	     -0.26798187	      4.54014805	    -11.23712198	    -10.57053623	     -8.02142444	     -0.07608303	      0.08562220	      0.01889587	   -825.73881199	   -733.89351820	    233.98520748	    -16.95366820	     18.54569535	     -1.83822571	    825.73881199	    733.89351820	   -233.98520748	    108.37002951	    -14.87476465	    335.96238109	    -12.08810000	    -14.95423236	     -5.01522608	      0.48711045	     -0.42577973	      0.09596145	     12.08810000	     14.95423236	      5.01522608	     -2.40267248	      0.30452862	      4.88262221	    112.85159561	     17.38828331	     19.87218457	   1129.24459663
      0.16505759	      0.01277159	      0.01755145	     57.37090111	     -9.59932561	      0.00000000	    583.95483364	    388.14235396	      0.00000000	      0.00000000	      0.00000000	      0.00000000	      0.00000000	      0.00000000	      0.00000000	      0.00000000	      0.00000001	      0.00000000	      0.03107300	      0.02377804	      0.03496024	      0.03248217	      0.05957632	      0.05925786	      0.05635874	      0.05226459	      0.04752139	      0.04262601	      0.01525851	      0.01651186	      0.06550154	      0.04489616	      0.00217693	     -0.05110652	      0.12429330	      0.08680368	     -0.00750796	     -0.00895809	     -0.04034293	     -0.06632357	     -0.15620440	     -0.18563604	      0.00000079	     -0.32847694	      0.00000060	     -0.00000086	     45.06538005	    103.07067666	     12.81159726	     -7.67639067	      1.08319248	     17.36348417	    -45.06538005	   -103.07067666	    -12.81159726	      2.87562679	     -1.41375856	      2.18286226	     11.32918588	     10.55345817	      7.99187679	     -2.99501124	     -0.26985793	      4.57636672	    -11.32918588	    -10.55345817	     -7.99187679	     -0.07664536	      0.08767737	      0.01854941	   -828.89451153	   -733.23077865	    233.92698389	    -16.93378499	     18.60909537	     -1.85437393	    828.89451153	    733.23077865	   -233.92698389	    108.33496273	    -14.93798804	    337.23126018	    -11.83893225	    -14.61256214	     -4.92370818	      0.47648252	     -0.41778612	      0.09461129	     11.83893225	     14.61256214	      4.92370818	     -2.35728510	      0.29859013	      4.78148052	    113.21921167	     17.42400719	     19.44042673	   1131.11242580
